<?xml version="1.0" encoding="iso-8859-1"?>
<!-- Generator: Adobe Illustrator 19.0.0, SVG Export Plug-In . SVG Version: 6.00 Build 0)  -->
<svg version="1.1" id="Layer_1" xmlns="http://www.w3.org/2000/svg" xmlns:xlink="http://www.w3.org/1999/xlink" x="0px" y="0px"
	 viewBox="0 0 305.779 305.779" style="enable-background:new 0 0 305.779 305.779;" xml:space="preserve">
<g>
	<g>
		<g>
			<path d="M272.809,188.551c0.096-0.688,0.2-1.372,0.264-2.068c1.408-2.044,2.244-4.508,2.244-7.172v-6.444
				c0-3.432-2.796-6.232-6.232-6.232h-1.324c0.136-0.484,0.308-0.96,0.408-1.452c1.22-6.016-0.372-11.976-4.412-17.308
				c6.46-0.576,11.56-5.956,11.56-12.564v-6.444c0-2.712-4.7-6.672-5.16-6.884L148.733,66.631c0.012-17.092-0.328-32.752-2.7-49.644
				l-1.092-7.816l-1.148,7.808c-2.464,16.716-2.584,32.952-2.452,49.888c0,0-111.1,57.072-111.644,57.768
				c-1.328,1.7-3.256,5.756-1.24,13.852c0.308,1.172,0.804,2.248,1.396,3.256c-0.76,1.448-1.408,2.972-1.796,4.652
				c-1.62,7.032,0.48,14.78,5.212,20.052l-0.58,0.296c-2.608,0.272-4.68,2.412-4.68,5.096v2.556c-1.876,2.264-3.248,4.944-3.952,8
				c-0.848,3.68-0.648,7.56,0.38,11.18c-4.52,3.036-8.576,6.236-11.936,9.632c-8.384,8.476-12.588,17.544-12.5,26.948
				c0.344,36.7,68.872,66.452,152.888,66.452h0.616c60.944-0.104,115.812-15.836,139.776-40.072
				c8.384-8.476,12.584-17.54,12.496-26.944C305.637,214.095,293.301,199.851,272.809,188.551z M269.081,170.603
				c1.248,0,2.26,1.016,2.26,2.26v6.444c0,4.8-3.908,8.708-8.708,8.708H85.325c5.004-2.396,9.7-6.508,13.496-11.924
				c1.048,2.72,2.856,4.912,5.36,6.468c5.528,3.432,12.752,2.8,15.224,1.72c3.992-1.744,7.628-4.544,10.704-8.024
				c6.296,4.044,13.756,6.408,21.768,6.408c11.208,0,21.316-4.64,28.656-12.06h17.124c1.276,6.396,5.204,13.06,11.94,15.532
				c2.328,0.852,4.772,1.256,7.208,1.256c7.008,0,13.952-3.348,17.948-8.968c5.192,4.164,11.624,5.448,17.956,3.544
				c5.808-1.756,10.768-6.04,13.52-11.364H269.081z M100.265,218.599v0.004c5.516,3.376,12.688,2.752,15.14,1.676
				c1.096-0.48,2.16-1.048,3.2-1.676h27.336c1.592,1.5,3.456,2.728,5.608,3.516c2.328,0.852,4.768,1.256,7.208,1.256
				c5.012,0,9.976-1.74,13.868-4.772h13.748c1.684,0.228,3.404,0.232,5.136,0h21.804c5.76,3.176,12.352,5.012,19.376,5.012
				c7.048,0,13.676-1.82,19.456-5.012h16.94c1.248,0,2.26,1.016,2.26,2.26v6.444c0,4.8-3.908,8.708-8.708,8.708H40.689
				c-4.8,0-8.708-3.908-8.708-8.708v-7.476c0-0.668,0.564-1.232,1.228-1.232h0.164h24.532c3.432,4.52,8.268,7.8,13.644,7.8
				c0.084,0,0.172-0.004,0.256-0.004c6.02-0.116,12.092-2.96,17.324-7.796H100.265z M92.861,214.635
				c0.672-0.82,1.336-1.652,1.96-2.544c0.352,0.916,0.824,1.752,1.348,2.544H92.861z M155.873,206.639l1.4-9.132l3.46,4.216
				l-1.74,11.36l2.244,0.344l1.432-9.344l4.488,5.476l1.752-1.436l-8.284-10.1l11.028,0.176l0.04-2.264l-12.884-0.208v0.08
				l-3.132-3.82h37.564c1.46,6.36,4.364,12.168,8.396,17.012c-2.212,2.36-5.02,4.184-8.132,5.12c-0.772,0.232-1.54,0.4-2.304,0.516
				h-4.54c-3.264-0.496-6.336-2.072-8.992-4.724l-1.92-1.916l-1.26,2.404c-3.788,7.216-13.66,10.852-21.56,7.964
				c-7.832-2.868-11.236-14.076-9.304-19.864l1.84-5.532l-4.848,3.236c-2.58,1.72-4.992,2.944-7.312,3.816
				c0.012-0.04,0.032-0.076,0.044-0.112c0.944-2.708,1.712-5.3,2.332-7.916h17.064l2.596,3.164l-1.708,11.144L155.873,206.639z
				 M223.257,194.615c0.284,0.328,3.012,0.052,3.012,0.052c-0.248,0.428-0.576,1.02-0.396,1.772c0.14,0.6,0.532,1.06,1.104,1.292
				c0.668,0.26,1.532,0.18,2.14-0.216l0.188-0.128c0.216-0.144,0.38-0.248,0.504-0.308c0.108,1.124,0.788,2.264,1.756,2.804
				c0.672,0.38,1.448,0.44,2.12,0.172c0.656-0.248,1.16-0.784,1.388-1.46c0.272-0.812,0.16-1.66,0.052-2.484
				c-0.032-0.24-0.064-0.48-0.084-0.72c-0.068-0.76,0.136-1.224,0.232-1.276c0.068-0.004,0.344,0.056,1.04,0.688
				c4.024,3.648,7.848,7.684,11.364,12.004c0.576,0.704,1.148,1.452,1.288,2.228c0.232,1.24-0.68,2.18-2.696,2.792
				c-5.792,1.748-12.368,3.74-19.136,1.724c-2.764-0.82-5.752-2.38-9.14-4.76c-3.432-2.42-5.96-4.776-7.96-7.352
				c0.02-0.092,0.056-0.176,0.076-0.268c0.212-1.052,0.312-2.1,0.352-3.148c3.312-2.232,6.784-4.22,10.352-6.032h2.688
				C223.209,192.511,222.977,194.287,223.257,194.615z M210.469,195.999c-0.084-1.352-0.348-2.688-0.704-4.012h7.496
				C214.941,193.235,212.673,194.571,210.469,195.999z M217.021,210.179c3.54,2.492,6.688,4.124,9.632,5.004
				c2.208,0.652,4.376,0.916,6.492,0.916c4.84,0,9.424-1.384,13.62-2.648c2.86-0.868,4.268-2.588,3.876-4.728
				c-0.216-1.168-0.928-2.12-1.644-2.992c-3.568-4.384-7.448-8.484-11.536-12.188c-0.48-0.436-1.336-1.268-2.408-1.116
				c-1.168,0.152-1.856,1.408-1.704,3.108c0.024,0.26,0.06,0.532,0.092,0.796c0.084,0.66,0.168,1.284,0.024,1.724
				c-0.084,0.248-0.256,0.364-0.392,0.416c-0.2,0.084-0.448,0.06-0.68-0.072c-0.58-0.324-0.508-2.032-0.752-2.44
				c-0.508-0.856-2.688-0.38-3.456,0.128c-0.156,0.1-0.424,0.12-0.66-0.036c-0.028-0.108,0.072-0.288,0.224-0.56
				c0.26-0.456,0.568-2.192,0.06-2.5c-0.508-0.308-2.888-0.048-2.888-0.048c0.084-0.164,0.2-0.344,0.34-0.556
				c0.088-0.132,0.16-0.268,0.24-0.404h16.512c5.608,2.976,11.44,5.6,17.44,7.696c0.32,0.108,0.756,0.26,1.252,0.26
				c0.192,0,0.392-0.024,0.596-0.08c1.06-0.292,1.848-1.316,2.352-3.052c0.464-1.584,0.752-3.276,0.964-5.028
				c1.428-0.228,2.756-0.7,3.984-1.36c0.296,0.156,0.576,0.316,0.872,0.472c-3.688,17.052-18.744,29.884-36.788,29.884
				c-10.34,0-19.716-4.212-26.536-11.016c1.448-1.928,2.584-4.064,3.328-6.332C211.453,205.775,213.873,207.959,217.021,210.179z
				 M245.821,191.987h16.816c0.088,0,0.168-0.024,0.256-0.028c-0.204,1.524-0.468,2.996-0.872,4.376
				c-0.312,1.084-0.74,1.768-1.172,1.888c-0.208,0.056-0.476-0.024-0.836-0.152C255.157,196.379,250.437,194.275,245.821,191.987z
				 M260.193,214.635h-2.172c0.26-0.212,0.52-0.42,0.776-0.636L260.193,214.635z M207.397,214.635h-6.216
				c1.128-0.82,2.192-1.716,3.152-2.72C205.305,212.875,206.333,213.775,207.397,214.635z M206.197,200.371
				c-0.46,2.268-1.428,4.424-2.752,6.356c-3.44-4.252-5.972-9.26-7.328-14.74h9.464
				C206.509,194.731,206.765,197.551,206.197,200.371z M177.017,214.635h-0.504c0.056-0.08,0.128-0.148,0.184-0.228
				C176.805,214.491,176.913,214.555,177.017,214.635z M139.105,201.811c-0.068,4.1,1.18,8.84,3.668,12.824h-18.928
				c2.9-2.712,5.368-6.036,7.292-9.736C134.069,204.231,136.765,203.107,139.105,201.811z M248.833,239.987
				c-1.164,1.856-2.612,3.688-4.388,5.484c-15.768,15.944-52.184,26.292-92.776,26.364h-0.416c-46.76,0-86.144-13.54-97.516-31.848
				H248.833z M41.681,214.635l11.62-5.888c0.436,1.996,1.108,3.992,2.064,5.888H41.681z M32.689,214.739
				c-2.608,0.272-4.68,2.412-4.68,5.096v7.476c0,6.988,5.688,12.676,12.676,12.676h10.468c11.156,19.572,51.804,34.112,100.1,34.112
				h0.416c41.16-0.072,78.212-10.684,94.384-27.036c2.272-2.3,4.072-4.664,5.416-7.08h11.164c6.988,0,12.676-5.688,12.676-12.676
				v-6.444c0-3.136-2.34-5.716-5.36-6.144l-8.048-3.668c3.12-3.264,5.692-7.048,7.604-11.204
				c13.124,8.156,20.704,17.908,20.704,28.636c0,31.276-61.332,56.724-136.72,56.724s-136.72-25.444-136.72-56.724
				c0-8.856,5.148-17.052,14.304-24.24c3.532,3.044,7.832,4.7,12.608,4.92L32.689,214.739z M142.441,153.663
				c0.28,0.38,3.012,0.052,3.012,0.052c-0.248,0.428-0.576,1.02-0.396,1.772c0.14,0.6,0.532,1.06,1.104,1.292
				c0.672,0.264,1.532,0.176,2.14-0.216l0.188-0.128c0.22-0.144,0.38-0.248,0.508-0.308c0.108,1.124,0.784,2.26,1.752,2.804
				c0.672,0.38,1.444,0.44,2.12,0.172c0.656-0.248,1.16-0.784,1.388-1.46c0.272-0.812,0.16-1.66,0.052-2.484
				c-0.032-0.24-0.064-0.48-0.084-0.72c-0.068-0.76,0.136-1.224,0.232-1.276c0.056-0.012,0.376,0.084,1.04,0.688
				c4.02,3.644,7.844,7.68,11.36,11.996c0.6,0.74,1.152,1.464,1.292,2.236c0.284,1.548-1.308,2.372-2.696,2.788
				c-5.8,1.752-12.384,3.74-19.136,1.728c-2.764-0.82-5.752-2.38-9.14-4.76c-3.656-2.58-6.312-5.076-8.368-7.856
				c-0.68-0.92-0.828-1.524-0.736-1.784c0.048-0.136,0.228-0.268,0.444-0.416c4.692-3.256,9.684-6.108,14.856-8.476
				c0.056,0.228,0.072,0.468,0.012,0.596c-0.1,0.208-0.236,0.404-0.364,0.596C142.613,151.119,141.869,152.891,142.441,153.663z
				 M127.561,156.371c-0.32,0.22-0.852,0.584-1.084,1.26c-0.324,0.916,0.004,2.044,0.972,3.352c2.164,2.932,4.944,5.552,8.756,8.24
				c3.54,2.492,6.688,4.124,9.632,5.004c2.172,0.644,4.328,0.904,6.44,0.904c4.952,0,9.656-1.42,13.672-2.636
				c2.86-0.86,4.268-2.584,3.876-4.724c-0.212-1.164-0.928-2.116-1.644-2.996c-3.572-4.388-7.452-8.484-11.54-12.188
				c-0.672-0.6-1.484-1.248-2.404-1.112c-1.168,0.152-1.856,1.408-1.704,3.108c0.024,0.26,0.06,0.532,0.092,0.796
				c0.084,0.66,0.168,1.284,0.024,1.724c-0.084,0.248-0.256,0.364-0.392,0.416c-0.216,0.084-0.452,0.056-0.68-0.072
				c-0.58-0.324-0.46-2.02-0.752-2.44c-0.704-1.028-2.688-0.38-3.456,0.128c-0.152,0.1-0.856,0.092-0.436-0.592
				c0.276-0.448,0.34-2.18,0.06-2.5c-0.28-0.32-2.892-0.052-2.892-0.052c0.084-0.164,0.2-0.344,0.34-0.556
				c0.172-0.26,0.344-0.524,0.476-0.804c0.396-0.816,0.168-1.924-0.304-2.644h13.58c0.48,1.748,1.044,3.46,1.816,5.08
				c3.62,7.608,10.416,13.488,18.164,15.728c0.056,0.016,0.108,0.02,0.164,0.036c-6.816,6.78-16.152,11-26.472,11
				c-18.732,0-34.26-13.82-37.18-31.84h27.544C137.133,150.355,132.193,153.155,127.561,156.371z M195.593,166.635
				c0.532-0.264,1.064-0.532,1.564-0.808c-0.004,0.26,0.036,0.544,0.04,0.808H195.593z M264.245,164.383
				c-1.28,6.32-6.384,11.844-12.696,13.752c-5.752,1.744-11.376,0.248-15.836-4.208l-1.92-1.916l-1.26,2.404
				c-3.784,7.216-13.64,10.864-21.564,7.964c-7.828-2.868-11.232-14.076-9.3-19.864l1.84-5.532l-4.848,3.236
				c-7.368,4.912-13.528,6.416-19.372,4.732c-6.668-1.924-12.524-7.012-15.664-13.6c-0.512-1.076-0.908-2.208-1.26-3.36h65.476
				l-2.712,3.68l-12.044,1.728l0.32,2.244l9.84-1.412l-3.392,4.6l-12.28,1.76l0.32,2.244l10.072-1.444l-4.364,5.92l1.828,1.344
				l8.236-11.172l2.936,10.744l2.188-0.592l-3.396-12.424l-0.06,0.016l5.216-7.076l-0.208-0.152h28.24
				C263.353,152.987,265.397,158.699,264.245,164.383z M144.901,26.519c1.7,16.772,1.62,32.816,1.536,50.948
				c-0.032,6.42-0.064,13.04-0.016,19.952c-0.788-0.012-1.58-0.02-2.368-0.024l-0.392-0.004c0.152-8.296,0.076-16.528-0.004-24.5
				C143.505,57.007,143.365,41.851,144.901,26.519z M141.377,71.299c0.004,0.54,0.008,1.076,0.016,1.62
				c0.08,8.32,0.16,16.924-0.02,25.58l-0.024,1.144l2.688,0.028c1.164,0.008,2.328,0.012,3.492,0.052l1.18,0.04l-0.012-1.18
				c-0.064-7.332-0.028-14.324,0.004-21.096c0.012-2.196,0.02-4.344,0.028-6.488l111.464,50.812H41.681L141.377,71.299z
				 M33.209,126.603h235.876c1.248,0,2.26,1.016,2.26,2.26v6.444c0,4.8-3.908,8.708-8.708,8.708h-1.064l5.008-10.536l-2.048-0.976
				l-5.472,11.512h-4.036l4.924-10.364l-2.048-0.976l-5.388,11.34h-4.04l4.844-10.192l-2.048-0.976l-5.308,11.168h-4.04l4.76-10.02
				l-2.048-0.976l-5.224,10.996H40.689c-3.932,0-7.384-2.688-8.388-6.516c-0.4-1.608-0.58-2.956-0.668-4.168h110.86v-2.168
				c0-0.192,0.06-0.336,0.1-0.5H31.625C31.905,127.883,32.969,126.715,33.209,126.603z M65.317,152.451
				c0.304-0.052,3.056-0.576,5.296-2.248c0.952-0.712,1.64-1.5,2.136-2.212h3.02c0.496,0.712,1.184,1.5,2.136,2.216
				c2.24,1.676,4.988,2.196,5.296,2.248l3.676,0.648l-1.12-3.56c-0.04-0.124-0.272-0.752-0.744-1.548h10.892
				c-3.62,6.164-11.916,10.524-21.644,10.524c-9.728,0-18.02-4.36-21.64-10.524h10.908c-0.48,0.796-0.724,1.424-0.764,1.548
				l-1.12,3.56L65.317,152.451z M64.925,150.215c0,0,0.36-1.088,1.372-2.232h3.384c-0.148,0.132-0.256,0.272-0.428,0.396
				C67.385,149.783,64.925,150.215,64.925,150.215z M78.833,147.987h3.384c1.012,1.14,1.372,2.232,1.372,2.232
				s-2.456-0.436-4.328-1.836C79.093,148.255,78.981,148.119,78.833,147.987z M31.957,147.291c0.18-0.784,0.416-1.532,0.696-2.248
				c2.212,1.84,5.016,2.944,8.036,2.944h8.716c3.676,7.768,13.396,13.36,24.856,13.36c11.452,0,21.144-5.596,24.824-13.36h12.732
				c1.576,10.476,7.1,19.648,15.028,25.924c-2.628,2.904-5.696,5.24-9.044,6.704c-1.488,0.652-7.264,1.188-11.508-1.448
				c-2.828-1.76-4.352-4.616-4.528-8.488l-0.32-7.152l-3.428,6.284c-5.5,10.076-14.04,16.432-22.288,16.588
				c-7.708,0.068-14.564-9.364-14.94-17.256l-0.128-2.74l-2.572,0.964c-8.1,3.036-15.388,2.248-20.5-2.228
				C32.737,160.891,30.477,153.719,31.957,147.291z M31.981,171.835c0-0.668,0.564-1.232,1.228-1.232h0.164h5.148
				c5.24,2.896,11.632,3.392,18.568,1.316c1.136,6.348,5.248,12.756,10.712,16.096H40.689c-4.8,0-8.708-3.908-8.708-8.708V171.835z
				 M27.957,183.291c0.096-0.416,0.26-0.784,0.392-1.176c1.284,5.64,6.316,9.872,12.34,9.872h43.376l-1.74,2.36l-12.048,1.728
				l0.32,2.244l9.844-1.412l-3.392,4.6l-12.28,1.76l0.32,2.244l10.072-1.444l-4.364,5.92l1.828,1.344l8.236-11.168l2.932,10.74
				l2.188-0.592l-3.396-12.424l-0.056,0.016l4.356-5.904h44.712c-0.536,2.04-1.184,4.172-2.032,6.604
				c-2.86,8.224-8.752,14.96-15.76,18.024c-1.492,0.648-7.268,1.188-11.508-1.448c-2.828-1.76-4.352-4.616-4.528-8.488l-0.32-7.152
				l-3.428,6.284c-5.5,10.076-14.04,16.432-22.288,16.588c-0.06,0-0.112,0.004-0.172,0.004c-7.528,0-14.392-9.428-14.768-17.26
				l-0.128-2.74l-2.572,0.964c-8.104,3.036-15.388,2.248-20.5-2.228C28.737,196.891,26.477,189.719,27.957,183.291z
				 M290.465,253.747c-23.256,23.52-77.02,38.784-136.964,38.892h-0.62c-81.84,0-148.584-27.992-148.908-62.524
				c-0.08-8.308,3.744-16.42,11.352-24.116c2.996-3.028,6.572-5.892,10.544-8.624c0.964,1.992,2.228,3.812,3.732,5.408
				c-9.648,7.596-15.092,16.292-15.092,25.708c0,32.528,62.348,58.988,138.984,58.988s138.984-26.46,138.984-58.988
				c0-11.488-8.128-21.9-22.144-30.54c0.724-1.812,1.308-3.696,1.768-5.624c18.524,10.416,29.58,23.324,29.712,37.312
				C301.893,237.939,298.073,246.051,290.465,253.747z"/>
			<path d="M239.717,209.979c0.412,0.468,1.056,0.816,1.728,0.816c0.288,0,0.584-0.068,0.864-0.212
				c0.388-0.208,0.704-0.556,0.936-1.028c0.924-1.84,0.08-3.984-1.104-5.204c-1.212-1.248-2.828-1.912-4.256-2.496l0.956,6.236
				C239.001,208.675,239.205,209.395,239.717,209.979z M240.917,205.539c0.8,0.82,1.332,2.204,0.804,3.252
				c-0.104,0.216-0.2,0.276-0.216,0.284c-0.076,0.036-0.34-0.02-0.512-0.22c-0.256-0.296-0.392-0.768-0.52-1.228l-0.868-3.092
				C240.093,204.823,240.541,205.151,240.917,205.539z"/>
			<path d="M227.577,211.415c0.184,0.06,0.38,0.088,0.584,0.088c0.252,0,0.524-0.048,0.808-0.136
				c1.956-0.632,2.892-2.748,2.928-4.444c0.036-1.756-0.66-3.436-1.22-4.784l-3.756,5.064c-0.3,0.528-0.672,1.18-0.732,1.952
				C226.129,210.035,226.581,211.099,227.577,211.415z M228.405,208.043l1.592-2.788c0.132,0.544,0.216,1.088,0.204,1.632
				c-0.024,1.148-0.636,2.5-1.748,2.864c-0.24,0.072-0.344,0.044-0.36,0.048c-0.104-0.036-0.224-0.272-0.204-0.52
				C227.921,208.887,228.165,208.459,228.405,208.043z"/>
			<path d="M214.957,201.435c-0.636,0.62-0.996,1.72-0.46,2.608c0.228,0.372,0.584,0.672,1.08,0.892
				c0.484,0.212,0.984,0.3,1.476,0.3c1.424,0,2.804-0.768,3.66-1.7c1.18-1.28,1.752-2.932,2.256-4.392l-6.176,1.304
				C216.193,200.659,215.513,200.895,214.957,201.435z M220.385,201.027c-0.256,0.5-0.556,0.964-0.92,1.36
				c-0.772,0.844-2.128,1.46-3.204,0.992c-0.228-0.1-0.288-0.184-0.304-0.208c-0.052-0.084,0.008-0.34,0.192-0.52
				c0.276-0.268,0.728-0.424,1.2-0.588L220.385,201.027z"/>
			<path d="M158.901,169.027c0.412,0.468,1.06,0.816,1.728,0.816c0.284,0,0.58-0.064,0.856-0.212
				c0.392-0.204,0.708-0.552,0.944-1.028c0.924-1.84,0.08-3.984-1.104-5.2c-1.204-1.248-2.828-1.916-4.256-2.5l0.96,6.236
				C158.197,167.751,158.393,168.447,158.901,169.027z M160.101,164.587c0.8,0.82,1.332,2.204,0.804,3.252
				c-0.108,0.22-0.2,0.272-0.22,0.284c-0.076,0.036-0.336-0.02-0.508-0.22c-0.252-0.292-0.384-0.752-0.52-1.232l-0.868-3.092
				C159.277,163.871,159.725,164.199,160.101,164.587z"/>
			<path d="M146.749,170.459c0.192,0.064,0.392,0.092,0.6,0.092c0.252,0,0.524-0.048,0.804-0.136
				c1.956-0.632,2.892-2.748,2.928-4.444c0.036-1.74-0.628-3.356-1.22-4.784l-3.756,5.064c-0.3,0.528-0.672,1.18-0.732,1.952
				C145.313,169.087,145.765,170.151,146.749,170.459z M147.585,167.091l1.592-2.788c0.132,0.544,0.216,1.084,0.204,1.632
				c-0.024,1.148-0.636,2.5-1.748,2.864c-0.24,0.068-0.34,0.048-0.364,0.04c-0.092-0.028-0.22-0.256-0.2-0.512
				C147.105,167.935,147.349,167.507,147.585,167.091z"/>
			<path d="M134.353,159.783c-0.636,0.62-0.996,1.72-0.46,2.608c0.228,0.38,0.592,0.676,1.08,0.888
				c0.488,0.212,0.988,0.304,1.48,0.304c1.424,0,2.8-0.772,3.656-1.7c1.18-1.28,1.752-2.932,2.256-4.392l-6.176,1.304
				C135.589,159.007,134.909,159.243,134.353,159.783z M139.777,159.371c-0.256,0.5-0.556,0.964-0.92,1.36
				c-0.78,0.844-2.132,1.452-3.212,0.984c-0.172-0.076-0.264-0.152-0.296-0.2c-0.052-0.084,0.008-0.34,0.192-0.52
				c0.276-0.268,0.728-0.424,1.2-0.588L139.777,159.371z"/>
			<path d="M146.497,133.335h15.668v-2.668h-15.768c0.04,0.164,0.1,0.308,0.1,0.5V133.335z"/>
			<rect x="166.173" y="130.663" width="24.16" height="2.668"/>
		</g>
	</g>
</g>
<g>
</g>
<g>
</g>
<g>
</g>
<g>
</g>
<g>
</g>
<g>
</g>
<g>
</g>
<g>
</g>
<g>
</g>
<g>
</g>
<g>
</g>
<g>
</g>
<g>
</g>
<g>
</g>
<g>
</g>
</svg>
